master_1.ufo
<glyph name="numbersign" format="2">
  <advance width="4997"/>
  <unicode hex="0023"/>
  <outline>
    <contour>
      <point x="379" y="0" type="line"/>
      <point x="1395" y="0" type="line"/>
      <point x="1540" y="504" type="line"/>
      <point x="3322" y="504" type="line"/>
      <point x="3177" y="0" type="line"/>
      <point x="4193" y="0" type="line"/>
      <point x="4338" y="504" type="line"/>
      <point x="4932" y="504" type="line"/>
      <point x="4932" y="506" type="line"/>
      <point x="4338" y="506" type="line"/>
      <point x="4481" y="1000" type="line"/>
      <point x="5043" y="1000" type="line"/>
      <point x="5043" y="1002" type="line"/>
      <point x="4481" y="1002" type="line"/>
      <point x="4653" y="1600" type="line"/>
      <point x="3637" y="1600" type="line"/>
      <point x="3465" y="1002" type="line"/>
      <point x="1683" y="1002" type="line"/>
      <point x="1855" y="1600" type="line"/>
      <point x="839" y="1600" type="line"/>
      <point x="667" y="1002" type="line"/>
      <point x="-6" y="1002" type="line"/>
      <point x="-6" y="1000" type="line"/>
      <point x="667" y="1000" type="line"/>
      <point x="524" y="506" type="line"/>
      <point x="-117" y="506" type="line"/>
      <point x="-117" y="504" type="line"/>
      <point x="524" y="504" type="line"/>
    </contour>
    <contour>
      <point x="1540" y="506" type="line"/>
      <point x="1683" y="1000" type="line"/>
      <point x="3465" y="1000" type="line"/>
      <point x="3322" y="506" type="line"/>
    </contour>
  </outline>
</glyph>
<glyph name="four" format="2">
  <advance width="5578"/>
  <unicode hex="0034"/>
  <outline>
    <contour>
      <point x="4012" y="0" type="line"/>
      <point x="5028" y="0" type="line"/>
      <point x="5028" y="749" type="line"/>
      <point x="5426" y="749" type="line"/>
      <point x="5426" y="751" type="line"/>
      <point x="5028" y="751" type="line"/>
      <point x="5028" y="1600" type="line"/>
      <point x="4012" y="1600" type="line"/>
      <point x="4012" y="751" type="line"/>
      <point x="1086" y="751" type="line" smooth="yes"/>
      <point x="1041" y="751"/>
      <point x="1016" y="776"/>
      <point x="1016" y="821" type="curve" smooth="yes"/>
      <point x="1016" y="1052" type="line"/>
      <point x="1277" y="1600" type="line"/>
      <point x="261" y="1600" type="line"/>
      <point x="0" y="1072" type="line"/>
      <point x="0" y="819" type="line" smooth="yes"/>
      <point x="0" y="774"/>
      <point x="25" y="749"/>
      <point x="70" y="749" type="curve" smooth="yes"/>
      <point x="4012" y="749" type="line"/>
    </contour>
  </outline>
</glyph>
<glyph name="six" format="2">
  <advance width="5665"/>
  <unicode hex="0036"/>
  <outline>
    <contour>
      <point x="470" y="0" type="curve" smooth="yes"/>
      <point x="5303" y="0" type="line" smooth="yes"/>
      <point x="5348" y="0"/>
      <point x="5373" y="25"/>
      <point x="5373" y="70" type="curve" smooth="yes"/>
      <point x="5373" y="731" type="line" smooth="yes"/>
      <point x="5373" y="776"/>
      <point x="5348" y="801"/>
      <point x="5303" y="801" type="curve" smooth="yes"/>
      <point x="1416" y="801" type="line"/>
      <point x="1416" y="1528" type="line" smooth="yes"/>
      <point x="1416" y="1573"/>
      <point x="1441" y="1598"/>
      <point x="1486" y="1598" type="curve" smooth="yes"/>
      <point x="4186" y="1598" type="line" smooth="yes"/>
      <point x="4231" y="1598"/>
      <point x="4256" y="1573"/>
      <point x="4256" y="1528" type="curve" smooth="yes"/>
      <point x="4256" y="1098" type="line"/>
      <point x="5272" y="1098" type="line"/>
      <point x="5272" y="1530" type="line" smooth="yes"/>
      <point x="5272" y="1575"/>
      <point x="5247" y="1600"/>
      <point x="5202" y="1600" type="curve" smooth="yes"/>
      <point x="470" y="1600" type="line" smooth="yes"/>
      <point x="425" y="1600"/>
      <point x="400" y="1575"/>
      <point x="400" y="1530" type="curve" smooth="yes"/>
      <point x="400" y="70" type="line" smooth="yes"/>
      <point x="400" y="25"/>
      <point x="425" y="0"/>
    </contour>
    <contour>
      <point x="4357" y="729" type="curve" smooth="yes"/>
      <point x="4357" y="72" type="line" smooth="yes"/>
      <point x="4357" y="27"/>
      <point x="4332" y="2"/>
      <point x="4287" y="2" type="curve" smooth="yes"/>
      <point x="1486" y="2" type="line" smooth="yes"/>
      <point x="1441" y="2"/>
      <point x="1416" y="27"/>
      <point x="1416" y="72" type="curve" smooth="yes"/>
      <point x="1416" y="799" type="line"/>
      <point x="4287" y="799" type="line" smooth="yes"/>
      <point x="4332" y="799"/>
      <point x="4357" y="774"/>
    </contour>
  </outline>
</glyph>
<glyph name="seven" format="2">
  <advance width="5612"/>
  <unicode hex="0037"/>
  <outline>
    <contour>
      <point x="2434" y="0" type="line"/>
      <point x="3450" y="0" type="line"/>
      <point x="5292" y="1279" type="line"/>
      <point x="5292" y="1600" type="line"/>
      <point x="200" y="1600" type="line"/>
      <point x="200" y="1098" type="line"/>
      <point x="1216" y="1098" type="line"/>
      <point x="1216" y="1598" type="line"/>
      <point x="4276" y="1598" type="line"/>
      <point x="4276" y="1280" type="line"/>
    </contour>
  </outline>
</glyph>
<glyph name="eight" format="2">
  <advance width="5865"/>
  <unicode hex="0038"/>
  <outline>
    <contour>
      <point x="410" y="0" type="curve" smooth="yes"/>
      <point x="5455" y="0" type="line" smooth="yes"/>
      <point x="5500" y="0"/>
      <point x="5525" y="25"/>
      <point x="5525" y="70" type="curve" smooth="yes"/>
      <point x="5525" y="468" type="line" smooth="yes"/>
      <point x="5525" y="506"/>
      <point x="5510" y="533"/>
      <point x="5477" y="552" type="curve" smooth="yes"/>
      <point x="5044" y="799" type="line"/>
      <point x="4030" y="799" type="line"/>
      <point x="5342" y="799" type="line" smooth="yes"/>
      <point x="5387" y="799"/>
      <point x="5412" y="824"/>
      <point x="5412" y="869" type="curve" smooth="yes"/>
      <point x="5412" y="1530" type="line" smooth="yes"/>
      <point x="5412" y="1575"/>
      <point x="5387" y="1600"/>
      <point x="5342" y="1600" type="curve" smooth="yes"/>
      <point x="503" y="1600" type="line" smooth="yes"/>
      <point x="458" y="1600"/>
      <point x="433" y="1575"/>
      <point x="433" y="1530" type="curve" smooth="yes"/>
      <point x="433" y="1125" type="line" smooth="yes"/>
      <point x="433" y="1088"/>
      <point x="447" y="1062"/>
      <point x="477" y="1040" type="curve" smooth="yes"/>
      <point x="810" y="801" type="line"/>
      <point x="810" y="801" type="line"/>
      <point x="410" y="801" type="line" smooth="yes"/>
      <point x="365" y="801"/>
      <point x="340" y="776"/>
      <point x="340" y="731" type="curve" smooth="yes"/>
      <point x="340" y="70" type="line" smooth="yes"/>
      <point x="340" y="25"/>
      <point x="365" y="0"/>
    </contour>
    <contour>
      <point x="1356" y="72" type="curve" smooth="yes"/>
      <point x="1356" y="728" type="line" smooth="yes"/>
      <point x="1356" y="773"/>
      <point x="1381" y="798"/>
      <point x="1426" y="798" type="curve" smooth="yes"/>
      <point x="4027" y="799" type="line"/>
      <point x="4460" y="551" type="line" smooth="yes"/>
      <point x="4493" y="532"/>
      <point x="4508" y="505"/>
      <point x="4508" y="467" type="curve" smooth="yes"/>
      <point x="4508" y="72" type="line" smooth="yes"/>
      <point x="4508" y="27"/>
      <point x="4483" y="2"/>
      <point x="4438" y="2" type="curve" smooth="yes"/>
      <point x="1426" y="2" type="line" smooth="yes"/>
      <point x="1381" y="2"/>
      <point x="1356" y="27"/>
    </contour>
    <contour>
      <point x="1828" y="801" type="line"/>
      <point x="1493" y="1041" type="line" smooth="yes"/>
      <point x="1463" y="1063"/>
      <point x="1449" y="1089"/>
      <point x="1449" y="1126" type="curve" smooth="yes"/>
      <point x="1449" y="1528" type="line" smooth="yes"/>
      <point x="1449" y="1573"/>
      <point x="1474" y="1598"/>
      <point x="1519" y="1598" type="curve" smooth="yes"/>
      <point x="4325" y="1598" type="line" smooth="yes"/>
      <point x="4370" y="1598"/>
      <point x="4395" y="1573"/>
      <point x="4395" y="1528" type="curve" smooth="yes"/>
      <point x="4395" y="871" type="line" smooth="yes"/>
      <point x="4395" y="826"/>
      <point x="4370" y="801"/>
      <point x="4325" y="801" type="curve" smooth="yes"/>
    </contour>
  </outline>
</glyph>
<glyph name="question" format="2">
  <advance width="4717"/>
  <unicode hex="003F"/>
  <outline>
    <contour>
      <point x="1772" y="555" type="line"/>
      <point x="4626" y="555" type="line"/>
      <point x="5076" y="1035" type="line"/>
      <point x="5076" y="1600" type="line"/>
      <point x="-299" y="1600" type="line"/>
      <point x="-299" y="980" type="line"/>
      <point x="717" y="980" type="line"/>
      <point x="717" y="1598" type="line"/>
      <point x="4060" y="1598" type="line"/>
      <point x="4060" y="1036" type="line"/>
      <point x="3611" y="557" type="line"/>
      <point x="1772" y="557" type="line"/>
    </contour>
    <component base="period" xOffset="1812"/>
  </outline>
</glyph>
<glyph name="A" format="2">
  <advance width="6972"/>
  <unicode hex="0041"/>
  <anchor x="3997" y="0" name="bottom"/>
  <anchor x="6240" y="10" name="ogonek"/>
  <anchor x="3988" y="1600" name="top"/>
  <outline>
    <contour>
      <point x="669" y="0" type="line"/>
      <point x="1684" y="0" type="line"/>
      <point x="1684" y="718" type="line"/>
      <point x="5257" y="718" type="line"/>
      <point x="5257" y="0" type="line"/>
      <point x="6272" y="0" type="line"/>
      <point x="6272" y="1540" type="line" smooth="yes"/>
      <point x="6272" y="1579"/>
      <point x="6251" y="1600"/>
      <point x="6212" y="1600" type="curve" smooth="yes"/>
      <point x="1209" y="1600" type="line" smooth="yes"/>
      <point x="1179" y="1600"/>
      <point x="1157" y="1590"/>
      <point x="1135" y="1569" type="curve" smooth="yes"/>
      <point x="700" y="1136" type="line" smooth="yes"/>
      <point x="678" y="1115"/>
      <point x="669" y="1092"/>
      <point x="669" y="1062" type="curve" smooth="yes"/>
    </contour>
    <contour>
      <point x="1684" y="720" type="line"/>
      <point x="1684" y="1131" type="line" smooth="yes"/>
      <point x="1684" y="1161"/>
      <point x="1694" y="1183"/>
      <point x="1715" y="1205" type="curve" smooth="yes"/>
      <point x="2069" y="1567" type="line" smooth="yes"/>
      <point x="2090" y="1589"/>
      <point x="2113" y="1598"/>
      <point x="2143" y="1598" type="curve" smooth="yes"/>
      <point x="5197" y="1598" type="line" smooth="yes"/>
      <point x="5236" y="1598"/>
      <point x="5257" y="1577"/>
      <point x="5257" y="1538" type="curve" smooth="yes"/>
      <point x="5257" y="720" type="line"/>
    </contour>
  </outline>
</glyph>
<glyph name="G" format="2">
  <advance width="6557"/>
  <unicode hex="0047"/>
  <anchor x="3964" y="0" name="bottom"/>
  <anchor x="3964" y="1600" name="top"/>
  <outline>
    <contour>
      <point x="724" y="0" type="curve" smooth="yes"/>
      <point x="6075" y="0" type="line" smooth="yes"/>
      <point x="6110" y="0"/>
      <point x="6130" y="20"/>
      <point x="6130" y="55" type="curve" smooth="yes"/>
      <point x="6130" y="746" type="line" smooth="yes"/>
      <point x="6130" y="781"/>
      <point x="6110" y="801"/>
      <point x="6075" y="801" type="curve" smooth="yes"/>
      <point x="3664" y="801" type="line"/>
      <point x="3664" y="799" type="line"/>
      <point x="5060" y="799" type="line" smooth="yes"/>
      <point x="5095" y="799"/>
      <point x="5115" y="779"/>
      <point x="5115" y="744" type="curve" smooth="yes"/>
      <point x="5115" y="57" type="line" smooth="yes"/>
      <point x="5115" y="22"/>
      <point x="5095" y="2"/>
      <point x="5060" y="2" type="curve" smooth="yes"/>
      <point x="1739" y="2" type="line" smooth="yes"/>
      <point x="1704" y="2"/>
      <point x="1684" y="22"/>
      <point x="1684" y="57" type="curve" smooth="yes"/>
      <point x="1684" y="1064" type="line" smooth="yes"/>
      <point x="1684" y="1092"/>
      <point x="1693" y="1112"/>
      <point x="1713" y="1132" type="curve" smooth="yes"/>
      <point x="2134" y="1570" type="line" smooth="yes"/>
      <point x="2153" y="1590"/>
      <point x="2174" y="1598"/>
      <point x="2202" y="1598" type="curve" smooth="yes"/>
      <point x="5039" y="1598" type="line" smooth="yes"/>
      <point x="5074" y="1598"/>
      <point x="5094" y="1578"/>
      <point x="5094" y="1543" type="curve" smooth="yes"/>
      <point x="5094" y="1067" type="line"/>
      <point x="6109" y="1067" type="line"/>
      <point x="6109" y="1545" type="line" smooth="yes"/>
      <point x="6109" y="1580"/>
      <point x="6089" y="1600"/>
      <point x="6054" y="1600" type="curve" smooth="yes"/>
      <point x="1306" y="1600" type="line" smooth="yes"/>
      <point x="1278" y="1600"/>
      <point x="1260" y="1589"/>
      <point x="1239" y="1572" type="curve" smooth="yes"/>
      <point x="698" y="1133" type="line" smooth="yes"/>
      <point x="677" y="1116"/>
      <point x="669" y="1093"/>
      <point x="669" y="1065" type="curve" smooth="yes"/>
      <point x="669" y="55" type="line" smooth="yes"/>
      <point x="669" y="20"/>
      <point x="689" y="0"/>
    </contour>
  </outline>
</glyph>
<glyph name="J" format="2">
  <advance width="6431"/>
  <unicode hex="004A"/>
  <anchor x="3505" y="0" name="bottom"/>
  <anchor x="3505" y="1600" name="top"/>
  <outline>
    <contour>
      <point x="555" y="0" type="curve" smooth="yes"/>
      <point x="5226" y="0" type="line" smooth="yes"/>
      <point x="5254" y="0"/>
      <point x="5274" y="9"/>
      <point x="5294" y="28" type="curve" smooth="yes"/>
      <point x="5734" y="459" type="line" smooth="yes"/>
      <point x="5754" y="479"/>
      <point x="5762" y="499"/>
      <point x="5762" y="527" type="curve" smooth="yes"/>
      <point x="5762" y="1545" type="line" smooth="yes"/>
      <point x="5762" y="1580"/>
      <point x="5742" y="1600"/>
      <point x="5707" y="1600" type="curve" smooth="yes"/>
      <point x="2660" y="1600" type="line"/>
      <point x="2665" y="1598" type="line"/>
      <point x="4692" y="1598" type="line" smooth="yes"/>
      <point x="4727" y="1598"/>
      <point x="4747" y="1578"/>
      <point x="4747" y="1543" type="curve" smooth="yes"/>
      <point x="4747" y="528" type="line" smooth="yes"/>
      <point x="4747" y="500"/>
      <point x="4740" y="480"/>
      <point x="4719" y="460" type="curve" smooth="yes"/>
      <point x="4280" y="30" type="line" smooth="yes"/>
      <point x="4260" y="11"/>
      <point x="4240" y="2"/>
      <point x="4212" y="2" type="curve" smooth="yes"/>
      <point x="1571" y="2" type="line" smooth="yes"/>
      <point x="1536" y="2"/>
      <point x="1516" y="22"/>
      <point x="1516" y="57" type="curve" smooth="yes"/>
      <point x="1516" y="702" type="line"/>
      <point x="500" y="702" type="line"/>
      <point x="500" y="55" type="line" smooth="yes"/>
      <point x="500" y="20"/>
      <point x="520" y="0"/>
    </contour>
  </outline>
</glyph>
<glyph name="O" format="2">
  <advance width="6841"/>
  <unicode hex="004F"/>
  <anchor x="3997" y="0" name="bottom"/>
  <anchor x="3997" y="800" name="center"/>
  <anchor x="6240" y="10" name="ogonek"/>
  <anchor x="3997" y="1600" name="top"/>
  <anchor x="1212" y="1600" name="topleft"/>
  <anchor x="6781" y="1600" name="topright"/>
  <outline>
    <contour>
      <point x="724" y="0" type="curve" smooth="yes"/>
      <point x="5436" y="0" type="line" smooth="yes"/>
      <point x="5464" y="0"/>
      <point x="5482" y="13"/>
      <point x="5504" y="28" type="curve" smooth="yes"/>
      <point x="6144" y="459" type="line" smooth="yes"/>
      <point x="6166" y="474"/>
      <point x="6172" y="499"/>
      <point x="6172" y="527" type="curve" smooth="yes"/>
      <point x="6172" y="1545" type="line" smooth="yes"/>
      <point x="6172" y="1580"/>
      <point x="6152" y="1600"/>
      <point x="6117" y="1600" type="curve" smooth="yes"/>
      <point x="1306" y="1600" type="line" smooth="yes"/>
      <point x="1278" y="1600"/>
      <point x="1259" y="1589"/>
      <point x="1238" y="1572" type="curve" smooth="yes"/>
      <point x="697" y="1133" type="line" smooth="yes"/>
      <point x="676" y="1116"/>
      <point x="669" y="1093"/>
      <point x="669" y="1065" type="curve" smooth="yes"/>
      <point x="669" y="55" type="line" smooth="yes"/>
      <point x="669" y="20"/>
      <point x="689" y="0"/>
    </contour>
    <contour>
      <point x="1739" y="2" type="line" smooth="yes"/>
      <point x="1704" y="2"/>
      <point x="1684" y="22"/>
      <point x="1684" y="57" type="curve" smooth="yes"/>
      <point x="1684" y="1164" type="line" smooth="yes"/>
      <point x="1684" y="1192"/>
      <point x="1690" y="1214"/>
      <point x="1712" y="1232" type="curve" smooth="yes"/>
      <point x="2132" y="1570" type="line" smooth="yes"/>
      <point x="2154" y="1588"/>
      <point x="2172" y="1598"/>
      <point x="2200" y="1598" type="curve" smooth="yes"/>
      <point x="5102" y="1598" type="line" smooth="yes"/>
      <point x="5137" y="1598"/>
      <point x="5157" y="1578"/>
      <point x="5157" y="1543" type="curve" smooth="yes"/>
      <point x="5157" y="428" type="line" smooth="yes"/>
      <point x="5157" y="400"/>
      <point x="5152" y="377"/>
      <point x="5129" y="360" type="curve" smooth="yes"/>
      <point x="4690" y="30" type="line" smooth="yes"/>
      <point x="4668" y="13"/>
      <point x="4650" y="2"/>
      <point x="4622" y="2" type="curve" smooth="yes"/>
    </contour>
  </outline>
</glyph>
<glyph name="P" format="2">
  <advance width="5586"/>
  <unicode hex="0050"/>
  <outline>
    <contour>
      <point x="700" y="0" type="line"/>
      <point x="1715" y="0" type="line"/>
      <point x="1715" y="631" type="line"/>
      <point x="5132" y="631" type="line" smooth="yes"/>
      <point x="5162" y="631"/>
      <point x="5184" y="641"/>
      <point x="5206" y="662" type="curve" smooth="yes"/>
      <point x="5435" y="890" type="line" smooth="yes"/>
      <point x="5457" y="911"/>
      <point x="5466" y="934"/>
      <point x="5466" y="964" type="curve" smooth="yes"/>
      <point x="5466" y="1540" type="line" smooth="yes"/>
      <point x="5466" y="1579"/>
      <point x="5445" y="1600"/>
      <point x="5406" y="1600" type="curve" smooth="yes"/>
      <point x="760" y="1600" type="line" smooth="yes"/>
      <point x="721" y="1600"/>
      <point x="700" y="1579"/>
      <point x="700" y="1540" type="curve" smooth="yes"/>
    </contour>
    <contour>
      <point x="1715" y="633" type="line"/>
      <point x="1715" y="1538" type="line" smooth="yes"/>
      <point x="1715" y="1577"/>
      <point x="1736" y="1598"/>
      <point x="1775" y="1598" type="curve" smooth="yes"/>
      <point x="4391" y="1598" type="line" smooth="yes"/>
      <point x="4430" y="1598"/>
      <point x="4451" y="1577"/>
      <point x="4451" y="1538" type="curve" smooth="yes"/>
      <point x="4451" y="928" type="line" smooth="yes"/>
      <point x="4451" y="898"/>
      <point x="4442" y="876"/>
      <point x="4421" y="854" type="curve" smooth="yes"/>
      <point x="4240" y="665" type="line" smooth="yes"/>
      <point x="4219" y="643"/>
      <point x="4197" y="633"/>
      <point x="4166" y="633" type="curve" smooth="yes"/>
    </contour>
  </outline>
</glyph>
<glyph name="R" format="2">
  <advance width="5520"/>
  <unicode hex="0052"/>
  <anchor x="2584" y="0" name="bottom"/>
  <anchor x="2584" y="1600" name="top"/>
  <outline>
    <contour>
      <point x="700" y="0" type="line"/>
      <point x="1715" y="0" type="line"/>
      <point x="1715" y="731" type="line"/>
      <point x="4962" y="731" type="line" smooth="yes"/>
      <point x="4992" y="731"/>
      <point x="5014" y="741"/>
      <point x="5036" y="762" type="curve" smooth="yes"/>
      <point x="5265" y="990" type="line" smooth="yes"/>
      <point x="5287" y="1011"/>
      <point x="5296" y="1034"/>
      <point x="5296" y="1064" type="curve" smooth="yes"/>
      <point x="5296" y="1540" type="line" smooth="yes"/>
      <point x="5296" y="1579"/>
      <point x="5275" y="1600"/>
      <point x="5236" y="1600" type="curve" smooth="yes"/>
      <point x="760" y="1600" type="line" smooth="yes"/>
      <point x="721" y="1600"/>
      <point x="700" y="1579"/>
      <point x="700" y="1540" type="curve" smooth="yes"/>
    </contour>
    <contour>
      <point x="1715" y="733" type="line"/>
      <point x="1715" y="1538" type="line" smooth="yes"/>
      <point x="1715" y="1577"/>
      <point x="1736" y="1598"/>
      <point x="1775" y="1598" type="curve" smooth="yes"/>
      <point x="4221" y="1598" type="line" smooth="yes"/>
      <point x="4260" y="1598"/>
      <point x="4281" y="1577"/>
      <point x="4281" y="1538" type="curve" smooth="yes"/>
      <point x="4281" y="1028" type="line" smooth="yes"/>
      <point x="4281" y="998"/>
      <point x="4272" y="976"/>
      <point x="4251" y="954" type="curve" smooth="yes"/>
      <point x="4070" y="765" type="line" smooth="yes"/>
      <point x="4049" y="743"/>
      <point x="4027" y="733"/>
      <point x="3996" y="733" type="curve" smooth="yes"/>
    </contour>
    <contour>
      <point x="4184" y="0" type="line"/>
      <point x="5406" y="0" type="line"/>
      <point x="4696" y="732" type="line"/>
      <point x="3500" y="732" type="line"/>
    </contour>
  </outline>
</glyph>
<glyph name="X" format="2">
  <advance width="6634"/>
  <unicode hex="0058"/>
  <outline>
    <contour>
      <point x="3012" y="799" type="line"/>
      <point x="5059" y="799" type="line" smooth="yes"/>
      <point x="5098" y="799"/>
      <point x="5119" y="778"/>
      <point x="5119" y="739" type="curve" smooth="yes"/>
      <point x="5119" y="0" type="line"/>
      <point x="6134" y="0" type="line"/>
      <point x="6134" y="741" type="line" smooth="yes"/>
      <point x="6134" y="780"/>
      <point x="6113" y="801"/>
      <point x="6074" y="801" type="curve" smooth="yes"/>
      <point x="4736" y="801" type="line"/>
      <point x="6016" y="1033" type="line" smooth="yes"/>
      <point x="6052" y="1040"/>
      <point x="6070" y="1062"/>
      <point x="6070" y="1098" type="curve" smooth="yes"/>
      <point x="6070" y="1600" type="line"/>
      <point x="5055" y="1600" type="line"/>
      <point x="5055" y="1099" type="line" smooth="yes"/>
      <point x="5055" y="1063"/>
      <point x="5037" y="1041"/>
      <point x="5001" y="1034" type="curve" smooth="yes"/>
      <point x="3724" y="801" type="line"/>
      <point x="1745" y="801" type="line" smooth="yes"/>
      <point x="1706" y="801"/>
      <point x="1685" y="822"/>
      <point x="1685" y="861" type="curve" smooth="yes"/>
      <point x="1685" y="1600" type="line"/>
      <point x="670" y="1600" type="line"/>
      <point x="670" y="859" type="line" smooth="yes"/>
      <point x="670" y="820"/>
      <point x="691" y="799"/>
      <point x="730" y="799" type="curve" smooth="yes"/>
      <point x="1987" y="799" type="line"/>
      <point x="654" y="564" type="line" smooth="yes"/>
      <point x="618" y="558"/>
      <point x="600" y="535"/>
      <point x="600" y="499" type="curve" smooth="yes"/>
      <point x="600" y="0" type="line"/>
      <point x="1615" y="0" type="line"/>
      <point x="1615" y="498" type="line" smooth="yes"/>
      <point x="1615" y="534"/>
      <point x="1633" y="557"/>
      <point x="1669" y="563" type="curve" smooth="yes"/>
    </contour>
  </outline>
</glyph>
<glyph name="backslash" format="2">
  <advance width="1474"/>
  <unicode hex="005C"/>
  <outline>
    <contour>
      <point x="381" y="0" type="line"/>
      <point x="1400" y="0" type="line"/>
      <point x="1099" y="1600" type="line"/>
      <point x="80" y="1600" type="line"/>
    </contour>
  </outline>
</glyph>
<glyph name="a" format="2">
  <advance width="5435"/>
  <unicode hex="0061"/>
  <anchor x="3093" y="0" name="bottom"/>
  <anchor x="4612" y="10" name="ogonek"/>
  <anchor x="3093" y="1200" name="top"/>
  <outline>
    <contour>
      <point x="475" y="0" type="curve" smooth="yes"/>
      <point x="3900" y="0" type="line" smooth="yes"/>
      <point x="3928" y="0"/>
      <point x="3949" y="9"/>
      <point x="3968" y="29" type="curve" smooth="yes"/>
      <point x="4400" y="484" type="line"/>
      <point x="3999" y="484" type="line"/>
      <point x="3999" y="0" type="line"/>
      <point x="5015" y="0" type="line"/>
      <point x="5015" y="1145" type="line" smooth="yes"/>
      <point x="5015" y="1180"/>
      <point x="4995" y="1200"/>
      <point x="4960" y="1200" type="curve" smooth="yes"/>
      <point x="1130" y="1200" type="line" smooth="yes"/>
      <point x="1102" y="1200"/>
      <point x="1082" y="1192"/>
      <point x="1062" y="1172" type="curve" smooth="yes"/>
      <point x="448" y="554" type="line" smooth="yes"/>
      <point x="428" y="534"/>
      <point x="420" y="514"/>
      <point x="420" y="486" type="curve" smooth="yes"/>
      <point x="420" y="55" type="line" smooth="yes"/>
      <point x="420" y="20"/>
      <point x="440" y="0"/>
    </contour>
    <contour>
      <point x="1436" y="57" type="curve" smooth="yes"/>
      <point x="1436" y="485" type="line" smooth="yes"/>
      <point x="1436" y="513"/>
      <point x="1444" y="533"/>
      <point x="1464" y="553" type="curve" smooth="yes"/>
      <point x="2078" y="1170" type="line" smooth="yes"/>
      <point x="2098" y="1190"/>
      <point x="2118" y="1198"/>
      <point x="2146" y="1198" type="curve" smooth="yes"/>
      <point x="3944" y="1198" type="line" smooth="yes"/>
      <point x="3979" y="1198"/>
      <point x="3999" y="1178"/>
      <point x="3999" y="1143" type="curve" smooth="yes"/>
      <point x="3999" y="486" type="line"/>
      <point x="3567" y="31" type="line" smooth="yes"/>
      <point x="3548" y="11"/>
      <point x="3527" y="2"/>
      <point x="3499" y="2" type="curve" smooth="yes"/>
      <point x="1491" y="2" type="line" smooth="yes"/>
      <point x="1456" y="2"/>
      <point x="1436" y="22"/>
    </contour>
  </outline>
</glyph>
<glyph name="b" format="2">
  <advance width="5556"/>
  <unicode hex="0062"/>
  <outline>
    <contour>
      <point x="560" y="70" type="curve" smooth="yes"/>
      <point x="560" y="1600" type="line"/>
      <point x="1576" y="1600" type="line"/>
      <point x="1576" y="72" type="line" smooth="yes"/>
      <point x="1576" y="27"/>
      <point x="1601" y="2"/>
      <point x="1646" y="2" type="curve" smooth="yes"/>
      <point x="3636" y="2" type="line" smooth="yes"/>
      <point x="3671" y="2"/>
      <point x="3697" y="12"/>
      <point x="3722" y="37" type="curve" smooth="yes"/>
      <point x="4093" y="397" type="line" smooth="yes"/>
      <point x="4119" y="423"/>
      <point x="4130" y="447"/>
      <point x="4130" y="483" type="curve" smooth="yes"/>
      <point x="4130" y="1128" type="line" smooth="yes"/>
      <point x="4130" y="1173"/>
      <point x="4105" y="1198"/>
      <point x="4060" y="1198" type="curve" smooth="yes"/>
      <point x="2061" y="1198" type="line" smooth="yes"/>
      <point x="2025" y="1198"/>
      <point x="1999" y="1187"/>
      <point x="1974" y="1162" type="curve" smooth="yes"/>
      <point x="1575" y="763" type="line"/>
      <point x="1275" y="765" type="line"/>
      <point x="1673" y="1164" type="line" smooth="yes"/>
      <point x="1698" y="1189"/>
      <point x="1724" y="1200"/>
      <point x="1760" y="1200" type="curve" smooth="yes"/>
      <point x="5076" y="1200" type="line" smooth="yes"/>
      <point x="5121" y="1200"/>
      <point x="5146" y="1175"/>
      <point x="5146" y="1130" type="curve" smooth="yes"/>
      <point x="5146" y="482" type="line" smooth="yes"/>
      <point x="5146" y="446"/>
      <point x="5135" y="421"/>
      <point x="5109" y="396" type="curve" smooth="yes"/>
      <point x="4738" y="35" type="line" smooth="yes"/>
      <point x="4713" y="10"/>
      <point x="4687" y="0"/>
      <point x="4652" y="0" type="curve" smooth="yes"/>
      <point x="630" y="0" type="line" smooth="yes"/>
      <point x="585" y="0"/>
      <point x="560" y="25"/>
    </contour>
  </outline>
</glyph>
<glyph name="h" format="2">
  <advance width="5390"/>
  <unicode hex="0068"/>
  <anchor x="3153" y="0" name="bottom"/>
  <anchor x="3153" y="850" name="center"/>
  <anchor x="3153" y="1700" name="top"/>
  <outline>
    <contour>
      <point x="560" y="0" type="line"/>
      <point x="1576" y="0" type="line"/>
      <point x="1576" y="763" type="line"/>
      <point x="1973" y="1162" type="line" smooth="yes"/>
      <point x="1998" y="1188"/>
      <point x="2024" y="1198"/>
      <point x="2060" y="1198" type="curve" smooth="yes"/>
      <point x="3884" y="1198" type="line" smooth="yes"/>
      <point x="3929" y="1198"/>
      <point x="3954" y="1173"/>
      <point x="3954" y="1128" type="curve" smooth="yes"/>
      <point x="3954" y="0" type="line"/>
      <point x="4970" y="0" type="line"/>
      <point x="4970" y="1130" type="line" smooth="yes"/>
      <point x="4970" y="1175"/>
      <point x="4945" y="1200"/>
      <point x="4900" y="1200" type="curve" smooth="yes"/>
      <point x="1689" y="1200" type="line" smooth="yes"/>
      <point x="1653" y="1200"/>
      <point x="1627" y="1190"/>
      <point x="1602" y="1164" type="curve" smooth="yes"/>
      <point x="1205" y="765" type="line"/>
      <point x="1576" y="765" type="line"/>
      <point x="1576" y="1600" type="line"/>
      <point x="560" y="1600" type="line"/>
    </contour>
  </outline>
</glyph>
<glyph name="j" format="2">
  <advance width="3382"/>
  <unicode hex="006A"/>
  <outline>
    <contour>
      <point x="-340" y="-300" type="line"/>
      <point x="2435" y="-300" type="line" smooth="yes"/>
      <point x="2470" y="-300"/>
      <point x="2496" y="-290"/>
      <point x="2521" y="-265" type="curve" smooth="yes"/>
      <point x="2885" y="91" type="line" smooth="yes"/>
      <point x="2911" y="117"/>
      <point x="2921" y="142"/>
      <point x="2921" y="178" type="curve" smooth="yes"/>
      <point x="2921" y="1200" type="line"/>
      <point x="1905" y="1200" type="line"/>
      <point x="1905" y="179" type="line" smooth="yes"/>
      <point x="1905" y="143"/>
      <point x="1895" y="117"/>
      <point x="1869" y="92" type="curve" smooth="yes"/>
      <point x="1505" y="-263" type="line" smooth="yes"/>
      <point x="1480" y="-288"/>
      <point x="1454" y="-298"/>
      <point x="1419" y="-298" type="curve" smooth="yes"/>
      <point x="-340" y="-298" type="line"/>
    </contour>
    <contour>
      <point x="1903" y="1388" type="line"/>
      <point x="2919" y="1388" type="line"/>
      <point x="2919" y="1460" type="line"/>
      <point x="1903" y="1460" type="line"/>
    </contour>
  </outline>
</glyph>
<glyph name="l" format="2">
  <advance width="2136"/>
  <unicode hex="006C"/>
  <anchor x="1068" y="0" name="bottom"/>
  <anchor x="1068" y="800" name="center"/>
  <anchor x="1068" y="1600" name="top"/>
  <anchor x="1749" y="1600" name="topright"/>
  <outline>
    <contour>
      <point x="560" y="0" type="line"/>
      <point x="1576" y="0" type="line"/>
      <point x="1576" y="1600" type="line"/>
      <point x="560" y="1600" type="line"/>
    </contour>
  </outline>
</glyph>
<glyph name="n" format="2">
  <advance width="5379"/>
  <unicode hex="006E"/>
  <anchor x="3376" y="0" name="bottom"/>
  <anchor x="3376" y="1200" name="top"/>
  <outline>
    <contour>
      <point x="420" y="0" type="line"/>
      <point x="1436" y="0" type="line"/>
      <point x="1436" y="712" type="line" smooth="yes"/>
      <point x="1436" y="748"/>
      <point x="1447" y="774"/>
      <point x="1472" y="799" type="curve" smooth="yes"/>
      <point x="1833" y="1162" type="line" smooth="yes"/>
      <point x="1858" y="1188"/>
      <point x="1884" y="1198"/>
      <point x="1920" y="1198" type="curve" smooth="yes"/>
      <point x="3873" y="1198" type="line" smooth="yes"/>
      <point x="3918" y="1198"/>
      <point x="3943" y="1173"/>
      <point x="3943" y="1128" type="curve" smooth="yes"/>
      <point x="3943" y="0" type="line"/>
      <point x="4959" y="0" type="line"/>
      <point x="4959" y="1130" type="line" smooth="yes"/>
      <point x="4959" y="1175"/>
      <point x="4934" y="1200"/>
      <point x="4889" y="1200" type="curve" smooth="yes"/>
      <point x="905" y="1200" type="line" smooth="yes"/>
      <point x="869" y="1200"/>
      <point x="843" y="1190"/>
      <point x="818" y="1164" type="curve" smooth="yes"/>
      <point x="456" y="800" type="line" smooth="yes"/>
      <point x="431" y="775"/>
      <point x="420" y="749"/>
      <point x="420" y="713" type="curve" smooth="yes"/>
    </contour>
  </outline>
</glyph>
<glyph name="r" format="2">
  <advance width="4093"/>
  <unicode hex="0072"/>
  <anchor x="2326" y="0" name="bottom"/>
  <anchor x="2326" y="1200" name="top"/>
  <outline>
    <contour>
      <point x="4043" y="1198" type="line"/>
      <point x="1920" y="1198" type="line" smooth="yes"/>
      <point x="1884" y="1198"/>
      <point x="1858" y="1188"/>
      <point x="1833" y="1162" type="curve" smooth="yes"/>
      <point x="1472" y="799" type="line" smooth="yes"/>
      <point x="1447" y="774"/>
      <point x="1436" y="748"/>
      <point x="1436" y="712" type="curve" smooth="yes"/>
      <point x="1436" y="0" type="line"/>
      <point x="420" y="0" type="line"/>
      <point x="420" y="713" type="line" smooth="yes"/>
      <point x="420" y="749"/>
      <point x="431" y="775"/>
      <point x="456" y="800" type="curve" smooth="yes"/>
      <point x="818" y="1164" type="line" smooth="yes"/>
      <point x="843" y="1190"/>
      <point x="869" y="1200"/>
      <point x="905" y="1200" type="curve" smooth="yes"/>
      <point x="4043" y="1200" type="line"/>
    </contour>
  </outline>
</glyph>
<glyph name="t" format="2">
  <advance width="4392"/>
  <unicode hex="0074"/>
  <anchor x="2562" y="0" name="bottom"/>
  <anchor x="2562" y="600" name="center"/>
  <anchor x="2562" y="1200" name="top"/>
  <anchor x="3939" y="1700" name="topright"/>
  <outline>
    <contour>
      <point x="630" y="0" type="curve" smooth="yes"/>
      <point x="4070" y="0" type="line"/>
      <point x="4070" y="2" type="line"/>
      <point x="1646" y="2" type="line" smooth="yes"/>
      <point x="1601" y="2"/>
      <point x="1576" y="26"/>
      <point x="1576" y="72" type="curve" smooth="yes"/>
      <point x="1575" y="1500" type="line"/>
      <point x="560" y="1500" type="line" smooth="yes"/>
      <point x="560" y="70" type="line" smooth="yes"/>
      <point x="560" y="25"/>
      <point x="585" y="0"/>
    </contour>
    <contour>
      <point x="1575" y="1198" type="line"/>
      <point x="4072" y="1198" type="line"/>
      <point x="4072" y="1200" type="line"/>
      <point x="1575" y="1200" type="line"/>
    </contour>
  </outline>
</glyph>
<glyph name="v" format="2">
  <advance width="4635"/>
  <unicode hex="0076"/>
  <outline>
    <contour>
      <point x="490" y="0" type="curve" smooth="yes"/>
      <point x="2771" y="0" type="line" smooth="yes"/>
      <point x="2804" y="0"/>
      <point x="2829" y="6"/>
      <point x="2858" y="23" type="curve" smooth="yes"/>
      <point x="4894" y="1200" type="line"/>
      <point x="3772" y="1200" type="line"/>
      <point x="1914" y="27" type="line" smooth="yes"/>
      <point x="1886" y="9"/>
      <point x="1861" y="2"/>
      <point x="1827" y="2" type="curve" smooth="yes"/>
      <point x="1492" y="2" type="line" smooth="yes"/>
      <point x="1447" y="2"/>
      <point x="1422" y="27"/>
      <point x="1422" y="72" type="curve" smooth="yes"/>
      <point x="1422" y="1200" type="line"/>
      <point x="420" y="1200" type="line"/>
      <point x="420" y="70" type="line" smooth="yes"/>
      <point x="420" y="25"/>
      <point x="445" y="0"/>
    </contour>
  </outline>
</glyph>
<glyph name="y" format="2">
  <advance width="4703"/>
  <unicode hex="0079"/>
  <anchor x="3106" y="0" name="bottom"/>
  <anchor x="3106" y="1200" name="top"/>
  <outline>
    <contour>
      <point x="3029" y="-300" type="line"/>
      <point x="4045" y="-300" type="line"/>
      <point x="4962" y="1200" type="line"/>
      <point x="3946" y="1200" type="line"/>
      <point x="3213" y="2" type="line"/>
      <point x="1506" y="2" type="line" smooth="yes"/>
      <point x="1461" y="2"/>
      <point x="1436" y="27"/>
      <point x="1436" y="72" type="curve" smooth="yes"/>
      <point x="1436" y="1200" type="line"/>
      <point x="420" y="1200" type="line"/>
      <point x="420" y="70" type="line" smooth="yes"/>
      <point x="420" y="25"/>
      <point x="445" y="0"/>
      <point x="490" y="0" type="curve" smooth="yes"/>
      <point x="3212" y="0" type="line"/>
    </contour>
  </outline>
</glyph>
<glyph name="z" format="2">
  <advance width="4574"/>
  <unicode hex="007A"/>
  <anchor x="2268" y="0" name="bottom"/>
  <anchor x="2268" y="600" name="center"/>
  <anchor x="2268" y="1200" name="top"/>
  <outline>
    <contour>
      <point x="270" y="0" type="curve" smooth="yes"/>
      <point x="4374" y="0" type="line"/>
      <point x="4374" y="2" type="line"/>
      <point x="1286" y="2" type="line" smooth="yes"/>
      <point x="1241" y="2"/>
      <point x="1216" y="27"/>
      <point x="1216" y="72" type="curve" smooth="yes"/>
      <point x="1216" y="279" type="line" smooth="yes"/>
      <point x="1216" y="320"/>
      <point x="1236" y="349"/>
      <point x="1276" y="356" type="curve" smooth="yes"/>
      <point x="4285" y="916" type="line" smooth="yes"/>
      <point x="4325" y="923"/>
      <point x="4345" y="952"/>
      <point x="4345" y="993" type="curve" smooth="yes"/>
      <point x="4345" y="1130" type="line" smooth="yes"/>
      <point x="4345" y="1175"/>
      <point x="4320" y="1200"/>
      <point x="4275" y="1200" type="curve" smooth="yes"/>
      <point x="206" y="1200" type="line"/>
      <point x="206" y="1198" type="line"/>
      <point x="3259" y="1198" type="line" smooth="yes"/>
      <point x="3304" y="1198"/>
      <point x="3329" y="1173"/>
      <point x="3329" y="1128" type="curve" smooth="yes"/>
      <point x="3329" y="995" type="line" smooth="yes"/>
      <point x="3329" y="954"/>
      <point x="3309" y="925"/>
      <point x="3269" y="918" type="curve" smooth="yes"/>
      <point x="260" y="357" type="line" smooth="yes"/>
      <point x="220" y="350"/>
      <point x="200" y="321"/>
      <point x="200" y="280" type="curve" smooth="yes"/>
      <point x="200" y="70" type="line" smooth="yes"/>
      <point x="200" y="25"/>
      <point x="225" y="0"/>
    </contour>
  </outline>
</glyph>
<glyph name="cent" format="2">
  <advance width="2951"/>
  <unicode hex="00A2"/>
  <anchor x="2126" y="0" name="bottom"/>
  <anchor x="2126" y="1200" name="top"/>
  <outline>
    <contour>
      <point x="1557" y="-135" type="line"/>
      <point x="1976" y="-135" type="line"/>
      <point x="1976" y="1340" type="line"/>
      <point x="1557" y="1340" type="line"/>
    </contour>
    <component base="c"/>
  </outline>
</glyph>
<glyph name="quoteleft" format="2">
  <advance width="995"/>
  <unicode hex="2018"/>
  <outline>
    <contour>
      <point x="-44" y="838" type="line"/>
      <point x="932" y="838" type="line"/>
      <point x="932" y="1600" type="line"/>
      <point x="390" y="1600" type="line"/>
    </contour>
  </outline>
</glyph>
